# xmcd
#
# Track frame offsets: 
#        150
#        12400
#        22774
#        30606
#        52833
#        66890
#        80250
#        100374
#        109483
#        118180
#        128497
#        143957
#
# Disc length: 2133 seconds
#
# Revision: 0
# Processed by: cddbd v1.5.1PL0 Copyright (c) Steve Scherf et al.
# Submitted via: ExactAudioCopy v0.95a5
#
DISCID=9908530c
DTITLE=Cassiano - Imagem e Som
DYEAR=1900
DGENRE=Latin
TTITLE0=Lenda
TTITLE1=Ela mandou esperar
TTITLE2=Tenho dito
TTITLE3=Já
TTITLE4=É isso aí
TTITLE5=O caso das bossas
TTITLE6=Eu, meu filho e você
TTITLE7=Primavera (vai chuva)
TTITLE8=Minister
TTITLE9=Uma lágrima
TTITLE10=Canção dos hippies (paz e amor)
TTITLE11=Não fique triste
EXTD=
EXTT0=
EXTT1=
EXTT2=
EXTT3=
EXTT4=
EXTT5=
EXTT6=
EXTT7=
EXTT8=
EXTT9=
EXTT10=
EXTT11=
PLAYORDER=
